<?xml version="1.0" encoding="UTF-8"?>
<svg id="Layer_1" data-name="Layer 1" xmlns="http://www.w3.org/2000/svg" xmlns:xlink="http://www.w3.org/1999/xlink" viewBox="0 0 1585.19 1116.67">
  <defs>
    <style>
      .cls-1 {
        fill: url(#linear-gradient);
      }
    </style>
    <linearGradient id="linear-gradient" x1="0" y1="558.34" x2="1585.19" y2="558.34" gradientUnits="userSpaceOnUse">
      <stop offset="0" stop-color="#9ec0d8"/>
      <stop offset="1" stop-color="#a79f9d"/>
    </linearGradient>
  </defs>
  <path class="cls-1" d="m1000,529.68v57.32c0,18.43,14.94,33.38,33.38,33.38h149.92c18.43,0,33.38,14.94,33.38,33.38v57.33c0,18.43,14.94,33.38,33.38,33.38h301.77c18.43,0,33.38,14.94,33.38,33.38v57.32c0,18.43-14.94,33.38-33.38,33.38h-233.25c-18.43,0-33.38,14.94-33.38,33.38v57.33c0,18.43,14.94,33.38,33.38,33.38h75.84c18.43,0,33.38,14.94,33.38,33.38v57.32c0,18.43-14.94,33.38-33.38,33.38H33.38c-18.43,0-33.38-14.94-33.38-33.38v-57.32c0-18.43,14.94-33.38,33.38-33.38h229.55c18.43,0,33.38-14.94,33.38-33.38v-57.33c0-18.43-14.94-33.38-33.38-33.38h-81.4c-18.43,0-33.38-14.94-33.38-33.38v-57.32c0-18.43,14.94-33.38,33.38-33.38h12.88c18.43,0,33.38-14.94,33.38-33.38v-57.33c0-18.43-14.94-33.38-33.38-33.38H44.49c-18.43,0-33.38-14.94-33.38-33.38v-57.32c0-18.43,14.94-33.38,33.38-33.38h518.44c18.43,0,33.38-14.94,33.38-33.38v-57.33c0-18.43-14.94-33.38-33.38-33.38H240.79c-18.43,0-33.38-14.94-33.38-33.38v-57.32c0-18.43,14.94-33.38,33.38-33.38h53.62c18.43,0,33.38-14.94,33.38-33.38v-57.32c0-18.43-14.94-33.38-33.38-33.38h-148.99c-18.43,0-33.38-14.94-33.38-33.38v-57.33C112.04,14.94,126.98,0,145.42,0h922.14c18.43,0,33.38,14.94,33.38,33.38v57.33c0,18.43,14.94,33.38,33.38,33.38h148.99c18.43,0,33.38,14.94,33.38,33.38v57.32c0,18.43-14.94,33.38-33.38,33.38h-53.62c-18.43,0-33.38,14.94-33.38,33.38v57.32c0,18.43,14.94,33.38,33.38,33.38h322.14c18.43,0,33.38,14.94,33.38,33.38v57.33c0,18.43-14.94,33.38-33.38,33.38h-518.44c-18.43,0-33.38,14.94-33.38,33.38Z"/>
</svg>